<svg xmlns="http://www.w3.org/2000/svg" viewBox="0 0 496 256" width="496" height="256" role="img" aria-label="Modal" font-family="'JetBrains Mono', ui-monospace, monospace"><rect x="0" y="0" width="496" height="256" rx="8" fill="#0d0d0d" stroke="#292929"/><line x1="0" y1="30" x2="496" y2="30" stroke="#292929"/><circle cx="18" cy="15" r="4" fill="#3a3a3a"/><circle cx="34" cy="15" r="4" fill="#3a3a3a"/><circle cx="50" cy="15" r="4" fill="#3a3a3a"/><text x="232" y="19" fill="#868686" font-size="11.5">Modal</text><rect x="16.00" y="44.00" width="464.40" height="18.00" fill="#000000"/><rect x="16.00" y="62.00" width="43.00" height="18.00" fill="#000000"/><text x="59.00" y="72.61" fill="#464646" font-size="13.6" textLength="378.40" lengthAdjust="spacingAndGlyphs" xml:space="preserve">┌──────────────────────────────────────────┐</text><rect x="437.40" y="62.00" width="43.00" height="18.00" fill="#000000"/><rect x="16.00" y="80.00" width="43.00" height="18.00" fill="#000000"/><text x="59.00" y="90.61" fill="#464646" font-size="13.6" textLength="8.60" lengthAdjust="spacingAndGlyphs" xml:space="preserve">│</text><text x="67.60" y="90.61" fill="#fafafa" font-size="13.6" textLength="68.80" lengthAdjust="spacingAndGlyphs" xml:space="preserve" font-weight="700"> Confirm</text><text x="428.80" y="90.61" fill="#464646" font-size="13.6" textLength="8.60" lengthAdjust="spacingAndGlyphs" xml:space="preserve">│</text><rect x="437.40" y="80.00" width="43.00" height="18.00" fill="#000000"/><rect x="16.00" y="98.00" width="43.00" height="18.00" fill="#000000"/><text x="59.00" y="108.61" fill="#464646" font-size="13.6" textLength="8.60" lengthAdjust="spacingAndGlyphs" xml:space="preserve">│</text><text x="67.60" y="108.61" fill="#fafafa" font-size="13.6" textLength="361.20" lengthAdjust="spacingAndGlyphs" xml:space="preserve">Apply 3 changes to the working tree?      </text><text x="428.80" y="108.61" fill="#464646" font-size="13.6" textLength="8.60" lengthAdjust="spacingAndGlyphs" xml:space="preserve">│</text><rect x="437.40" y="98.00" width="43.00" height="18.00" fill="#000000"/><rect x="16.00" y="116.00" width="43.00" height="18.00" fill="#000000"/><text x="59.00" y="126.61" fill="#464646" font-size="13.6" textLength="8.60" lengthAdjust="spacingAndGlyphs" xml:space="preserve">│</text><text x="428.80" y="126.61" fill="#464646" font-size="13.6" textLength="8.60" lengthAdjust="spacingAndGlyphs" xml:space="preserve">│</text><rect x="437.40" y="116.00" width="43.00" height="18.00" fill="#000000"/><rect x="16.00" y="134.00" width="43.00" height="18.00" fill="#000000"/><text x="59.00" y="144.61" fill="#464646" font-size="13.6" textLength="8.60" lengthAdjust="spacingAndGlyphs" xml:space="preserve">│</text><rect x="67.60" y="134.00" width="77.40" height="18.00" fill="#1a9a7e"/><text x="67.60" y="144.61" fill="#050505" font-size="13.6" textLength="77.40" lengthAdjust="spacingAndGlyphs" xml:space="preserve">  Apply  </text><rect x="162.20" y="134.00" width="86.00" height="18.00" fill="#fafafa"/><text x="162.20" y="144.61" fill="#050505" font-size="13.6" textLength="86.00" lengthAdjust="spacingAndGlyphs" xml:space="preserve">  Cancel  </text><text x="428.80" y="144.61" fill="#464646" font-size="13.6" textLength="8.60" lengthAdjust="spacingAndGlyphs" xml:space="preserve">│</text><rect x="437.40" y="134.00" width="43.00" height="18.00" fill="#000000"/><rect x="16.00" y="152.00" width="43.00" height="18.00" fill="#000000"/><text x="59.00" y="162.61" fill="#464646" font-size="13.6" textLength="8.60" lengthAdjust="spacingAndGlyphs" xml:space="preserve">│</text><text x="428.80" y="162.61" fill="#464646" font-size="13.6" textLength="8.60" lengthAdjust="spacingAndGlyphs" xml:space="preserve">│</text><rect x="437.40" y="152.00" width="43.00" height="18.00" fill="#000000"/><rect x="16.00" y="170.00" width="43.00" height="18.00" fill="#000000"/><text x="59.00" y="180.61" fill="#464646" font-size="13.6" textLength="8.60" lengthAdjust="spacingAndGlyphs" xml:space="preserve">│</text><text x="428.80" y="180.61" fill="#464646" font-size="13.6" textLength="8.60" lengthAdjust="spacingAndGlyphs" xml:space="preserve">│</text><rect x="437.40" y="170.00" width="43.00" height="18.00" fill="#000000"/><rect x="16.00" y="188.00" width="43.00" height="18.00" fill="#000000"/><text x="59.00" y="198.61" fill="#464646" font-size="13.6" textLength="378.40" lengthAdjust="spacingAndGlyphs" xml:space="preserve">└──────────────────────────────────────────┘</text><rect x="437.40" y="188.00" width="43.00" height="18.00" fill="#000000"/><rect x="16.00" y="206.00" width="464.40" height="18.00" fill="#000000"/><rect x="16.00" y="224.00" width="464.40" height="18.00" fill="#000000"/></svg>